<svg width="20" height="20" viewBox="0 0 20 20" fill="none" xmlns="http://www.w3.org/2000/svg">
<path d="M19.8085 16.6771L14.9701 11.8388C14.8663 11.7361 14.7311 11.671 14.5861 11.6538C14.4411 11.6365 14.2944 11.6682 14.1694 11.7438C13.2966 12.2718 12.6455 13.0989 12.3372 14.0713C12.1812 14.5599 11.6111 14.7838 11.1701 14.5192L11.1633 14.5124L11.1565 14.5056C9.03714 13.2345 7.26354 11.4609 5.99245 9.34156C5.99245 9.33477 5.98566 9.32798 5.98566 9.32798C5.71423 8.8869 5.93816 8.31689 6.42674 8.16082C7.40113 7.85638 8.22954 7.20427 8.75429 6.32863C8.91037 6.07077 8.86965 5.74505 8.65929 5.5279L3.82097 0.689575C3.71711 0.586884 3.58195 0.521779 3.43692 0.504571C3.29188 0.487363 3.14524 0.519036 3.02024 0.594573C2.42859 0.949532 1.93459 1.44615 1.58275 2.03965C1.23091 2.63315 1.03231 3.30489 1.00483 3.99429V4.00108C0.998047 4.06894 0.998047 4.1368 0.998047 4.20465C0.998047 4.29966 1.00483 4.38787 1.01162 4.47609C1.09237 7.16318 1.86105 9.78463 3.24417 12.0898C4.51313 14.207 6.29102 15.9849 8.40821 17.2539L8.415 17.2607C10.7493 18.6653 13.4094 19.4321 16.1305 19.4932C16.1848 19.4932 16.2391 19.5 16.2934 19.5H16.6734V19.4864C17.3331 19.4305 17.9702 19.2194 18.5328 18.8704C19.0953 18.5213 19.5673 18.0441 19.9103 17.4778C20.0595 17.2199 20.0188 16.8874 19.8085 16.6771Z" fill="white"/>
</svg>
